<svg width="56" height="56" viewBox="0 0 56 56" fill="none" xmlns="http://www.w3.org/2000/svg">
<path d="M43.7499 9.33325C47.938 9.33325 51.3333 12.7284 51.3333 16.9166V43.7499C51.3333 47.938 47.938 51.3333 43.7499 51.3333H16.9166C12.7284 51.3333 9.33325 47.938 9.33325 43.7499V29.171C10.4398 29.6323 11.6126 29.9665 12.8335 30.155L12.8333 43.7499C12.8333 44.2362 12.9183 44.7026 13.0742 45.1352L26.6601 31.8336C28.604 29.9303 31.6574 29.8398 33.7068 31.562L34.0064 31.8338L47.5915 45.1376C47.7479 44.7043 47.8333 44.2371 47.8333 43.7499V16.9166C47.8333 14.6614 46.0051 12.8333 43.7499 12.8333L30.155 12.8335C29.9665 11.6126 29.6323 10.4398 29.171 9.33325H43.7499ZM29.3038 34.1693L29.1087 34.3345L15.5596 47.6025C15.9842 47.7518 16.4409 47.8333 16.9166 47.8333H43.7499C44.2248 47.8333 44.6807 47.7523 45.1044 47.6032L31.5576 34.3345C30.939 33.729 29.9835 33.6737 29.3038 34.1693ZM37.9215 17.4999C40.8237 17.4999 43.1764 19.8526 43.1764 22.7549C43.1764 25.657 40.8237 28.0097 37.9215 28.0097C35.0193 28.0097 32.6666 25.657 32.6666 22.7549C32.6666 19.8526 35.0193 17.4999 37.9215 17.4999ZM15.1666 2.33325C22.2542 2.33325 27.9999 8.07892 27.9999 15.1666C27.9999 22.2542 22.2542 27.9999 15.1666 27.9999C8.07892 27.9999 2.33325 22.2542 2.33325 15.1666C2.33325 8.07892 8.07892 2.33325 15.1666 2.33325ZM37.9215 20.9999C36.9522 20.9999 36.1666 21.7856 36.1666 22.7549C36.1666 23.7241 36.9522 24.5097 37.9215 24.5097C38.8908 24.5097 39.6764 23.7241 39.6764 22.7549C39.6764 21.7856 38.8908 20.9999 37.9215 20.9999ZM15.1666 6.99812L14.9569 7.01693C14.4807 7.10335 14.1052 7.47888 14.0187 7.95509L13.9999 8.16479L13.9991 13.9981L8.1611 13.9999L7.95138 14.0187C7.47517 14.1052 7.09967 14.4807 7.01324 14.9569L6.99443 15.1666L7.01324 15.3763C7.09967 15.8525 7.47517 16.228 7.95138 16.3144L8.1611 16.3333L14.0014 16.3315L14.0025 22.1747L14.0213 22.3844C14.1077 22.8606 14.4832 23.2362 14.9595 23.3226L15.1692 23.3414L15.3789 23.3226C15.8551 23.2362 16.2306 22.8606 16.317 22.3844L16.3358 22.1747L16.3348 16.3315L22.1772 16.3333L22.3869 16.3144C22.8632 16.228 23.2387 15.8525 23.3251 15.3763L23.344 15.1666L23.3251 14.9569C23.2387 14.4807 22.8632 14.1052 22.3869 14.0187L22.1772 13.9999L16.3324 13.9981L16.3333 8.16479L16.3144 7.95509C16.228 7.47888 15.8525 7.10335 15.3763 7.01693L15.1666 6.99812Z" fill="#292929"/>
</svg>
