<svg width="50" height="50" viewBox="0 0 50 50" fill="none" xmlns="http://www.w3.org/2000/svg">
<path d="M16.6667 6.25C10.9146 6.25 6.25 10.9146 6.25 16.6667V33.3333C6.25 39.0854 10.9146 43.75 16.6667 43.75H33.3333C39.0854 43.75 43.75 39.0854 43.75 33.3333V16.6667C43.75 10.9146 39.0854 6.25 33.3333 6.25H16.6667ZM37.5 10.4167C38.65 10.4167 39.5833 11.35 39.5833 12.5C39.5833 13.65 38.65 14.5833 37.5 14.5833C36.35 14.5833 35.4167 13.65 35.4167 12.5C35.4167 11.35 36.35 10.4167 37.5 10.4167ZM25 14.5833C30.7521 14.5833 35.4167 19.2479 35.4167 25C35.4167 30.7521 30.7521 35.4167 25 35.4167C19.2479 35.4167 14.5833 30.7521 14.5833 25C14.5833 19.2479 19.2479 14.5833 25 14.5833ZM25 18.75C23.3424 18.75 21.7527 19.4085 20.5806 20.5806C19.4085 21.7527 18.75 23.3424 18.75 25C18.75 26.6576 19.4085 28.2473 20.5806 29.4194C21.7527 30.5915 23.3424 31.25 25 31.25C26.6576 31.25 28.2473 30.5915 29.4194 29.4194C30.5915 28.2473 31.25 26.6576 31.25 25C31.25 23.3424 30.5915 21.7527 29.4194 20.5806C28.2473 19.4085 26.6576 18.75 25 18.75Z" fill="#265EE9"/>
</svg>
