<svg width="32" height="32" viewBox="0 0 32 32" fill="none" xmlns="http://www.w3.org/2000/svg">
<path d="M16 28.72C15.6045 28.7209 15.2127 28.6437 14.8471 28.4927C14.4816 28.3416 14.1495 28.1198 13.87 27.84L3.56999 17.54C2.75632 16.7175 2.11448 15.7413 1.68183 14.6682C1.24919 13.5952 1.0344 12.4468 1.04999 11.29C1.05783 10.2298 1.27474 9.1816 1.68832 8.20541C2.10189 7.22921 2.70399 6.3442 3.46013 5.60106C4.21627 4.85792 5.1116 4.27127 6.09482 3.87469C7.07804 3.47811 8.12985 3.27941 9.18999 3.28996C10.2691 3.27909 11.3394 3.48504 12.3374 3.89558C13.3355 4.30613 14.2409 4.91292 15 5.67996L16 6.67996L16.82 5.85996C18.2359 4.40653 20.1306 3.51547 22.1531 3.35183C24.1756 3.1882 26.1888 3.76306 27.82 4.96996C28.7485 5.68501 29.514 6.58968 30.0656 7.62372C30.6171 8.65776 30.942 9.79745 31.0187 10.9669C31.0953 12.1363 30.9219 13.3087 30.51 14.4058C30.0982 15.503 29.4572 16.4998 28.63 17.33L18.13 27.84C17.8505 28.1198 17.5184 28.3416 17.1529 28.4927C16.7873 28.6437 16.3955 28.7209 16 28.72ZM9.14999 5.27996C7.56051 5.27834 6.03275 5.89518 4.88999 6.99996C4.30738 7.5605 3.84407 8.23301 3.52788 8.97709C3.21169 9.72117 3.04914 10.5215 3.04999 11.33C3.04122 12.2193 3.20907 13.1015 3.5438 13.9254C3.87854 14.7494 4.3735 15.4987 4.99999 16.13L15.3 26.43C15.3929 26.5237 15.5035 26.5981 15.6254 26.6489C15.7473 26.6996 15.878 26.7258 16.01 26.7258C16.142 26.7258 16.2727 26.6996 16.3946 26.6489C16.5164 26.5981 16.627 26.5237 16.72 26.43L27.23 15.91C27.8469 15.28 28.3236 14.5266 28.6286 13.6994C28.9337 12.8721 29.0602 11.9896 29 11.11C28.9466 10.2213 28.7018 9.35462 28.2824 8.56931C27.863 7.784 27.2789 7.09858 26.57 6.55996C25.3261 5.64285 23.7913 5.20922 22.2514 5.33984C20.7115 5.47046 19.2716 6.15644 18.2 7.26996L16.71 8.79996C16.617 8.89369 16.5064 8.96808 16.3846 9.01885C16.2627 9.06962 16.132 9.09576 16 9.09576C15.868 9.09576 15.7373 9.06962 15.6154 9.01885C15.4935 8.96808 15.3829 8.89369 15.29 8.79996L13.59 7.09996C12.4191 5.93924 10.8387 5.28553 9.18999 5.27996H9.14999Z" fill="#FF2E63"/>
<path d="M16 28.72C15.6045 28.7209 15.2127 28.6437 14.8471 28.4927C14.4816 28.3416 14.1495 28.1198 13.87 27.84L3.56999 17.54C2.75632 16.7175 2.11448 15.7413 1.68183 14.6682C1.24919 13.5952 1.0344 12.4468 1.04999 11.29C1.05783 10.2298 1.27474 9.1816 1.68832 8.20541C2.10189 7.22921 2.70399 6.3442 3.46013 5.60106C4.21627 4.85792 5.1116 4.27127 6.09482 3.87469C7.07804 3.47811 8.12985 3.27941 9.18999 3.28996C10.2691 3.27909 11.3394 3.48504 12.3374 3.89558C13.3355 4.30613 14.2409 4.91292 15 5.67996L16 6.67996L16.82 5.85996C18.2359 4.40653 20.1306 3.51547 22.1531 3.35183C24.1756 3.1882 26.1888 3.76306 27.82 4.96996C28.7485 5.68501 29.514 6.58968 30.0656 7.62372C30.6171 8.65776 30.942 9.79745 31.0187 10.9669C31.0953 12.1363 30.9219 13.3087 30.51 14.4058C30.0982 15.503 29.4572 16.4998 28.63 17.33L18.13 27.84C17.8505 28.1198 17.5184 28.3416 17.1529 28.4927C16.7873 28.6437 16.3955 28.7209 16 28.72ZM9.14999 5.27996C7.56051 5.27834 6.03275 5.89518 4.88999 6.99996C4.30738 7.5605 3.84407 8.23301 3.52788 8.97709C3.21169 9.72117 3.04914 10.5215 3.04999 11.33C3.04122 12.2193 3.20907 13.1015 3.5438 13.9254C3.87854 14.7494 4.3735 15.4987 4.99999 16.13L15.3 26.43C15.3929 26.5237 15.5035 26.5981 15.6254 26.6489C15.7473 26.6996 15.878 26.7258 16.01 26.7258C16.142 26.7258 16.2727 26.6996 16.3946 26.6489C16.5164 26.5981 16.627 26.5237 16.72 26.43L27.23 15.91C27.8469 15.28 28.3236 14.5266 28.6286 13.6994C28.9337 12.8721 29.0602 11.9896 29 11.11C28.9466 10.2213 28.7018 9.35462 28.2824 8.56931C27.863 7.784 27.2789 7.09858 26.57 6.55996C25.3261 5.64285 23.7913 5.20922 22.2514 5.33984C20.7115 5.47046 19.2716 6.15644 18.2 7.26996L16.71 8.79996C16.617 8.89369 16.5064 8.96808 16.3846 9.01885C16.2627 9.06962 16.132 9.09576 16 9.09576C15.868 9.09576 15.7373 9.06962 15.6154 9.01885C15.4935 8.96808 15.3829 8.89369 15.29 8.79996L13.59 7.09996C12.4191 5.93924 10.8387 5.28553 9.18999 5.27996H9.14999Z" fill="#FF2E63"/>
</svg>
