<svg width="48" height="48" viewBox="0 0 48 48" fill="none" xmlns="http://www.w3.org/2000/svg">
<path d="M38 6H10C7.79 6 6 7.79 6 10V38C6 40.21 7.79 42 10 42H38C40.21 42 42 40.21 42 38V10C42 7.79 40.21 6 38 6ZM15.476 34C14.082 34 12.952 32.87 12.952 31.476V22.522C12.954 21.13 14.084 20 15.476 20C16.87 20 18 21.13 18 22.524V31.478C18 32.87 16.87 34 15.476 34ZM15.388 17.434C13.846 17.434 12.816 16.406 12.816 15.034C12.816 13.662 13.844 12.634 15.558 12.634C17.1 12.634 18.13 13.662 18.13 15.034C18.13 16.406 17.102 17.434 15.388 17.434ZM33.558 34C32.21 34 31.116 32.906 31.116 31.558V26.348C31.116 24.232 29.814 24 29.326 24C28.838 24 27.21 24.07 27.21 26.348V31.558C27.21 32.906 26.116 34 24.768 34H24.606C23.258 34 22.164 32.906 22.164 31.558V22.524C22.164 21.13 23.294 20 24.688 20C26.082 20 27.212 21.13 27.212 22.524C27.212 22.524 27.776 20 31.608 20C34.046 20 36 21.954 36 26.348V31.558C36 32.906 34.906 34 33.558 34Z" fill="#265EE9"/>
</svg>
