<svg width="22" height="29" viewBox="0 0 22 29" fill="none" xmlns="http://www.w3.org/2000/svg">
<path d="M20.9073 29C20.7165 29 20.5291 28.9502 20.3638 28.8557L11 23.5383L1.63616 28.8557C1.47007 28.95 1.28188 28.9994 1.09044 28.999C0.898994 28.9986 0.711015 28.9484 0.545324 28.8535C0.379634 28.7585 0.242047 28.6221 0.146341 28.4579C0.0506357 28.2937 0.000170891 28.1075 0 27.9179V1.08209C0 0.795102 0.115125 0.519868 0.320049 0.316937C0.524972 0.114006 0.802909 0 1.09272 0H20.9073C21.1971 0 21.475 0.114006 21.68 0.316937C21.8849 0.519868 22 0.795102 22 1.08209V27.9179C22 28.2049 21.8849 28.4801 21.68 28.6831C21.475 28.886 21.1971 29 20.9073 29ZM11 21.209C11.1908 21.209 11.3782 21.2587 11.5434 21.3532L19.8146 26.0495V2.16418H2.18543V26.0495L10.4566 21.3532C10.6218 21.2587 10.8092 21.209 11 21.209Z" fill="#265EE9"/>
</svg>
