<svg width="48" height="48" viewBox="0 0 48 48" fill="none" xmlns="http://www.w3.org/2000/svg">
<path d="M43.268 8.06192C41.638 8.83192 38.864 10.2759 37.47 10.5519C37.416 10.5659 37.372 10.5839 37.32 10.5979C35.694 8.99392 33.466 7.99992 31 7.99992C26.03 7.99992 22 12.0299 22 16.9999C22 17.2619 21.978 17.7439 22 17.9999C15.564 17.9999 10.864 14.6419 7.34598 10.3259C6.87598 9.74592 6.37598 10.0479 6.27198 10.4599C6.03798 11.3919 5.95798 12.9499 5.95798 14.0619C5.95798 16.8639 8.14798 19.6159 11.558 21.3219C10.93 21.4839 10.238 21.5999 9.51798 21.5999C8.66998 21.5999 7.69398 21.3779 6.83998 20.9299C6.52398 20.7639 5.84198 20.8099 6.04398 21.6179C6.85398 24.8559 10.55 27.1299 13.852 27.7919C13.102 28.2339 11.502 28.1439 10.766 28.1439C10.494 28.1439 9.54798 28.0799 8.93598 28.0039C8.37798 27.9359 7.51998 28.0799 8.23798 29.1679C9.77998 31.5019 13.268 32.9679 16.27 33.0239C13.506 35.1919 8.98598 35.9839 4.65598 35.9839C3.77998 35.9639 3.82398 36.9619 4.52998 37.3319C7.72398 39.0079 12.956 39.9999 16.694 39.9999C31.554 39.9999 40 28.6739 40 17.9979C40 17.8259 39.996 17.4659 39.99 17.1039C39.99 17.0679 40 17.0339 40 16.9979C40 16.9439 39.984 16.8919 39.984 16.8379C39.978 16.5659 39.972 16.3119 39.966 16.1799C41.144 15.3299 42.948 13.8539 43.86 12.7239C44.17 12.3399 43.92 11.8739 43.498 12.0199C42.412 12.3979 40.534 13.1299 39.358 13.2699C41.712 11.7119 42.876 10.3559 43.876 8.84992C44.218 8.33592 43.79 7.81392 43.268 8.06192Z" fill="#265EE9"/>
</svg>
